MoBL_ARMS_shoulder_elvation_states	
version=1	
nRows=366	
nColumns=2	
inDegrees=yes	
	
# SIMM Motion File Header:	
name MoBL_ARMS_shoulder_elvation_states	
datacolumns 2	
datarows 366	
otherdata 1	
range 0.000000 5.000000	
endheader	
time	shoulder_elv
0	30.00000023
0.0061057	29.99433374
0.012211399	29.97735797
0.026672716	29.89223702
0.036421992	29.79954792
0.046171269	29.67884118
0.055287307	29.54107388
0.060385473	29.45370577
0.065483638	29.35904355
0.073354801	29.19876466
0.079576276	29.06019415
0.085797752	28.91129858
0.089422965	28.81985945
0.093048178	28.72502534
0.099702533	28.54222354
0.105410726	28.37660125
0.108501791	28.28357322
0.111592856	28.18823016
0.117060143	28.0139856
0.120818863	27.89011825
0.124577582	27.76297969
0.128336302	27.6326232
0.131277337	27.52841362
0.134218371	27.42227943
0.139968009	27.20925177
0.142959869	27.0955378
0.145951729	26.97986259
0.14894359	26.86223789
0.15193545	26.74267348
0.153830087	26.66595661
0.155724723	26.58847552
0.15933962	26.43850187
0.162954516	26.28573189
0.165028061	26.19684726
0.167101606	26.1070648
0.171148924	25.92920311
0.175196243	25.74790379
0.178671512	25.58950819
0.181389425	25.46389568
0.184107339	25.33676423
0.186825253	25.2081175
0.189115549	25.09854357
0.191405846	24.98790427
0.193674997	24.87724272
0.195640604	24.78054831
0.197606211	24.68308196
0.199820404	24.57236797
0.202034596	24.46067994
0.204504526	24.33494425
0.206609185	24.22685637
0.208713844	24.11789991
0.211009186	23.99808851
0.213304529	23.87725809
0.215599871	23.75540832
0.217895214	23.63254757
0.220190556	23.50867854
0.222194408	23.39972093
0.223995893	23.30111868
0.225797379	23.20190314
0.227765966	23.09278977
0.229734552	22.982953
0.231818444	22.8658957
0.233902336	22.74804461
0.235986228	22.62939272
0.23807012	22.50994398
0.240261117	22.38350559
0.242452113	22.25620139
0.244258926	22.15056828
0.246065739	22.0443512
0.247872553	21.93755173
0.250164545	21.80124302
0.252456537	21.66401108
0.254400388	21.54690637
0.256344239	21.4291445
0.258331659	21.30806799
0.26031908	21.18631195
0.26228423	21.06525668
0.264010525	20.95837409
0.26573682	20.85099117
0.267696733	20.72847151
0.269656646	20.60531092
0.271335292	20.49931701
0.273013938	20.39285852
0.275049439	20.26315007
0.277084939	20.13276589
0.278846857	20.01936665
0.280608774	19.90546945
0.282370692	19.79107503
0.284132609	19.67619491
0.285748389	19.57041068
0.28736417	19.46422053
0.28984977	19.3000705
0.29233537	19.13497089
0.29451644	18.98932275
0.29629445	18.870058
0.29807246	18.75031574
0.299736476	18.63782247
0.301400492	18.52492561
0.303410716	18.38799378
0.305202881	18.26542
0.306995046	18.14238284
0.30878721	18.01888611
0.310579375	17.89493177
0.312097136	17.78960244
0.313614897	17.68395571
0.315500316	17.55227364
0.317385735	17.42010239
0.319338669	17.282689
0.321291604	17.14476172
0.32303518	17.02118845
0.324778757	16.89721305
0.326527317	16.7724817
0.328275877	16.64736328
0.330024438	16.52184922
0.331772998	16.39594342
0.333521558	16.26965267
0.335270118	16.1429809
0.337018678	16.01593253
0.338578299	15.90229765
0.340137921	15.78837173
0.341697542	15.67415651
0.343709884	15.52636421
0.345722227	15.37810009
0.347231472	15.26659696
0.348740717	15.15483456
0.350815831	15.00075268
0.352890945	14.84619639
0.354966059	14.69116747
0.357151449	14.52740301
0.359095341	14.38131377
0.361039234	14.23483122
0.362983126	14.08796452
0.364927018	13.94071834
0.366643835	13.81036421
0.368360652	13.67972436
0.37034324	13.52851395
0.372325829	13.37693806
0.374308418	13.22500052
0.376070665	13.08965423
0.377832913	12.95403609
0.37959516	12.81814981
0.381357408	12.68200131
0.383119655	12.54559496
0.384901821	12.40739191
0.386683987	12.26893992
0.388466153	12.13024101
0.390436747	11.97660052
0.392407341	11.82267733
0.39376066	11.71680736
0.395113979	11.61080909
0.396875452	11.47265409
0.398636925	11.33429744
0.400404331	11.19527121
0.401923074	11.07564981
0.403441816	10.95588821
0.405468183	10.79588789
0.40749455	10.63565705
0.409237474	10.49765691
0.410980399	10.35949807
0.412723323	10.22118483
0.414568033	10.07463524
0.416412743	9.927929804
0.418257454	9.781075885
0.420102164	9.634082143
0.421946874	9.486957202
0.423490209	9.363771479
0.425033543	9.240501483
0.426934373	9.088573092
0.428835202	8.936535572
0.430767266	8.781897472
0.432300829	8.659087061
0.433834393	8.536222537
0.435367956	8.413308508
0.437111254	8.27353162
0.438854551	8.13370598
0.440597849	7.993837792
0.442345002	7.853626334
0.444092155	7.713387234
0.445455268	7.603958768
0.446818381	7.49452257
0.448546251	7.355796758
0.450274121	7.217071598
0.452103539	7.070203979
0.453932956	6.923355167
0.455762373	6.776534838
0.45759179	6.629750636
0.459419656	6.483137661
0.461247522	6.336582473
0.463075388	6.190095375
0.464903254	6.043682817
0.466892059	5.884477953
0.468880864	5.725388208
0.47130525	5.531629179
0.472928784	5.401993548
0.474552317	5.272459167
0.476908422	5.084673148
0.479264526	4.897141392
0.48085239	4.770912098
0.482440255	4.644820078
0.484039747	4.517945492
0.485639239	4.391222132
0.48723873	4.264657126
0.489139125	4.114497723
0.49103952	3.964584965
0.492939915	3.814932627
0.49484031	3.665551514
0.496740705	3.516453727
0.4986411	3.367654634
0.500205616	3.245387424
0.501770132	3.123337838
0.503756478	2.968707996
0.505742823	2.814455106
0.507905962	2.64692503
0.509005464	2.561958607
0.510104966	2.477121851
0.512162999	2.318680209
0.513649181	2.204560145
0.515135364	2.090703448
0.516997545	1.948410187
0.519155892	1.784019358
0.521314239	1.620222047
0.523472585	1.457047132
0.525314569	1.318289655
0.527156553	1.180009036
0.52878191	1.058397864
0.530407267	0.937183602
0.531813279	0.832648838
0.533219291	0.728419302
0.535513374	0.559027897
0.537807456	0.390498838
0.539607464	0.258887517
0.541407471	0.127837739
0.543207479	-0.002640883
0.545459712	-0.165074312
0.547711944	-0.326562826
0.549666546	-0.465926576
0.551621147	-0.604541831
0.553575749	-0.742392587
0.55553035	-0.879463442
0.557218101	-0.997177024
0.558905853	-1.114282506
0.560651265	-1.234739103
0.562396677	-1.354515
0.564507165	-1.498427361
0.566617653	-1.641312885
0.568728141	-1.783148901
0.570838629	-1.923917036
0.573208656	-2.080689627
0.575578683	-2.236048453
0.577589626	-2.36673724
0.579600568	-2.496367085
0.581611511	-2.624920588
0.583622453	-2.752376299
0.585633395	-2.878713338
0.58741795	-2.989873818
0.589202505	-3.100126258
0.591358759	-3.232108293
0.592877031	-3.324217608
0.594395304	-3.41563639
0.596841206	-3.561441115
0.599287109	-3.705402586
0.601652168	-3.842819667
0.604017226	-3.978453131
0.606054009	-4.093806691
0.608090793	-4.207789715
0.610127576	-4.320385956
0.612596995	-4.455007791
0.614790542	-4.572822691
0.616984089	-4.688955849
0.619177637	-4.803378148
0.621371184	-4.916067186
0.624194657	-5.05852892
0.626718936	-5.183391011
0.629243215	-5.3058552
0.631665116	-5.421064833
0.634087017	-5.533996959
0.636508919	-5.644625102
0.639455419	-5.776068861
0.642401919	-5.904004328
0.645348419	-6.028381315
0.64829492	-6.149144315
0.65124142	-6.266250175
0.654497261	-6.391340633
0.657753102	-6.511846669
0.660769414	-6.619337555
0.663785726	-6.722785475
0.666802038	-6.822145704
0.66981835	-6.917371904
0.672834662	-7.008425488
0.676333306	-7.108753912
0.679831951	-7.203347081
0.684466498	-7.31973908
0.689101046	-7.425845635
0.693735593	-7.521552788
0.69834654	-7.606346731
0.701620463	-7.660193708
0.704894387	-7.708706899
0.710182105	-7.775770689
0.715469824	-7.82880632
0.720757543	-7.867742294
0.747196138	-7.849764993
0.791731516	-7.031928909
0.836266894	-5.311041934
0.880802272	-2.855562479
0.92533765	0.12603557
0.982692298	4.404986614
1.044561204	9.172329756
1.10643011	13.7508852
1.168299016	17.89723916
1.230167922	21.44719654
1.306931548	24.85540896
1.400451507	27.32738876
1.43644158	27.7563066
1.490545037	27.83288357
1.528363883	27.48002698
1.566182729	26.80301431
1.604001575	25.81089624
1.706041216	21.65653842
1.782482919	17.29559846
1.849378083	12.79188663
1.916273247	7.878815141
1.983168411	2.890476415
2.050063575	-1.689892963
2.10335385	-4.634896423
2.156644125	-6.599251501
2.209934401	-7.327528231
2.257176212	-6.854564376
2.304418024	-5.386169744
2.351659835	-3.083618988
2.398901647	-0.16883612
2.446143458	3.123582299
2.511794703	7.934634346
2.577445947	12.62577885
2.643097192	16.89116712
2.708748436	20.52732971
2.774399681	23.39705216
2.865396033	25.93978137
2.980220563	26.58918479
3.130823511	23.10720001
3.215070651	19.20942988
3.287882823	14.91875683
3.360694995	10.00814681
3.433507168	4.820007
3.50631934	-0.130995569
3.56304086	-3.377140825
3.619762381	-5.682593188
3.676483901	-6.731284743
3.733205421	-6.36619637
3.780358746	-5.025176623
3.827512071	-2.889818545
3.874665396	-0.161438461
3.921818721	2.942749096
3.990362088	7.720971208
4.058905455	12.38772999
4.127448822	16.60607787
4.195992189	20.1530959
4.264535556	22.88066988
4.357725326	25.10565826
4.474950633	25.31320588
4.612467507	21.91333739
4.696577634	18.08954467
4.769244249	13.92368794
4.841910864	9.198906373
4.914577479	4.263290291
4.987244094	-0.372032553
5	-1.106163212
